<svg width="529" height="344" viewBox="0 0 529 344" fill="none" xmlns="http://www.w3.org/2000/svg">
<path d="M329.279 306.814L260.857 253.345L120.486 336.969L192.557 253.345L60.9951 343.814L89.4951 297.314L11.4951 308.814L92.4951 239.814L0 234.806L140.185 184.024L14.3043 152.665L161.748 148.263L68.2202 105.351L140.185 111.732L2.62946 5.7938L185.017 87.3185L155.527 0L207.251 59.417L227.985 27.4577L255.643 77.2914L273.748 41.9492L283.108 82.087L343.565 46.8384L321.909 111.732L353.734 92.5501L329.279 127.863L528.99 125.683L329.279 164.684L375.102 175.792L338.305 178.569L482.715 229.946L347.495 220.314L407.579 272.05L321.909 250.314L329.279 306.814Z" fill="#FBCE51"/>
</svg>
